<svg width="32" height="32" viewBox="0 0 32 32" fill="none" xmlns="http://www.w3.org/2000/svg">
<path d="M26 9.89399C25.2642 10.2153 24.4733 10.4324 23.6434 10.53C24.4905 10.0301 25.1412 9.23858 25.4475 8.29532C24.6546 8.75829 23.7765 9.09436 22.8418 9.27549C22.0934 8.49043 21.027 8 19.8468 8C17.5808 8 15.7435 9.80845 15.7435 12.0391C15.7435 12.3557 15.7798 12.664 15.8498 12.9596C12.4396 12.7912 9.41617 11.1831 7.39237 8.73929C7.03917 9.33583 6.83677 10.0296 6.83677 10.7699C6.83677 12.1713 7.56117 13.4076 8.66217 14.1319C7.98957 14.111 7.35687 13.9293 6.80367 13.6268C6.8032 13.6436 6.8032 13.6605 6.8032 13.6775C6.8032 15.6345 8.2176 17.267 10.0947 17.6383C9.75041 17.7306 9.38791 17.7799 9.0137 17.7799C8.7493 17.7799 8.49231 17.7546 8.24171 17.7075C8.76391 19.3122 10.2792 20.48 12.0748 20.5125C10.6705 21.5959 8.90131 22.2417 6.9788 22.2417C6.6476 22.2417 6.321 22.2225 6 22.1852C7.8159 23.3313 9.97271 24 12.2899 24C19.8372 24 23.9645 17.8452 23.9645 12.5074C23.9645 12.3323 23.9605 12.1581 23.9526 11.9848C24.7542 11.4154 25.4498 10.7041 25.9999 9.89399H26Z" fill="white"/>
</svg>
