<svg width="58" height="56" viewBox="0 0 58 56" fill="none" xmlns="http://www.w3.org/2000/svg">
<g filter="url(#filter0_d_614_7377)">
<path fill-rule="evenodd" clip-rule="evenodd" d="M16.8697 8H33.8905C35.0524 7.99993 36.2007 8.25111 37.2577 8.73655C38.3148 9.22198 39.2558 9.93033 40.017 10.8136C40.7783 11.6969 41.342 12.7345 41.6701 13.8561C41.9981 14.9777 42.0828 16.1572 41.9184 17.3146L39.4073 34.9946C39.1312 36.9389 38.1674 38.7176 36.693 40.0044C35.2186 41.2913 33.3325 41.9998 31.3808 42H14.1086C12.9373 41.9999 11.78 41.7445 10.7162 41.2514C9.65235 40.7583 8.70732 40.0391 7.94611 39.1433C7.18489 38.2475 6.62554 37.1965 6.30654 36.0624C5.98755 34.9283 5.91647 33.7382 6.09821 32.5738L8.85933 14.8938C9.15919 12.9727 10.131 11.2226 11.5996 9.95864C13.0683 8.6947 14.9372 8.00011 16.8697 8Z" fill="white"/>
<path d="M33.8905 9H33.8906C34.9082 8.99994 35.9142 9.21993 36.8404 9.6453C37.7666 10.0707 38.5917 10.6916 39.2595 11.4665C39.9274 12.2413 40.4222 13.152 40.7103 14.1368L41.6701 13.8561L40.7103 14.1368C40.9983 15.1217 41.0727 16.1575 40.9283 17.174L38.4173 34.854C38.1747 36.5616 37.3284 38.1226 36.0355 39.251C34.7427 40.3793 33.0899 40.9998 31.3808 41C31.3807 41 31.3807 41 31.3806 41H14.1086C13.0828 40.9999 12.0689 40.7763 11.1367 40.3441L10.7162 41.2514L11.1367 40.3441C10.2045 39.912 9.3759 39.2816 8.70812 38.4957C8.04033 37.7099 7.54929 36.7874 7.26919 35.7916C6.98908 34.7958 6.92664 33.7506 7.08625 32.7281L9.84736 15.0481L9.84737 15.0481C10.1107 13.3608 10.964 11.825 12.2519 10.7166C13.5396 9.60836 15.1773 9.00011 16.8697 9C16.8697 9 16.8697 9 16.8697 9H33.8905Z" stroke="#828282" stroke-width="2"/>
</g>
<defs>
<filter id="filter0_d_614_7377" x="0" y="0" width="58" height="56" filterUnits="userSpaceOnUse" color-interpolation-filters="sRGB">
<feFlood flood-opacity="0" result="BackgroundImageFix"/>
<feColorMatrix in="SourceAlpha" type="matrix" values="0 0 0 0 0 0 0 0 0 0 0 0 0 0 0 0 0 0 127 0" result="hardAlpha"/>
<feOffset dx="5" dy="3"/>
<feGaussianBlur stdDeviation="5.5"/>
<feColorMatrix type="matrix" values="0 0 0 0 0 0 0 0 0 0 0 0 0 0 0 0 0 0 0.16 0"/>
<feBlend mode="normal" in2="BackgroundImageFix" result="effect1_dropShadow_614_7377"/>
<feBlend mode="normal" in="SourceGraphic" in2="effect1_dropShadow_614_7377" result="shape"/>
</filter>
</defs>
</svg>
