<svg width="28" height="28" viewBox="0 0 28 28" fill="none" xmlns="http://www.w3.org/2000/svg">
<rect width="28" height="28" rx="10" fill="#7ED321" fill-opacity="0.2"/>
<path fill-rule="evenodd" clip-rule="evenodd" d="M14.6562 11.2383V18.8125H18.9218C19.013 18.8125 19.0905 18.8444 19.1543 18.9082C19.2181 18.972 19.25 19.0495 19.25 19.1406V19.7968C19.25 19.888 19.2181 19.9655 19.1543 20.0293C19.0905 20.0931 19.013 20.125 18.9218 20.125H9.07812C8.98697 20.125 8.9095 20.0931 8.8457 20.0293C8.78189 19.9655 8.74999 19.888 8.74999 19.7968V19.1406C8.74999 19.0495 8.78189 18.972 8.8457 18.9082C8.9095 18.8444 8.98697 18.8125 9.07812 18.8125H13.3437V11.2383C13.0156 11.1107 12.7513 10.901 12.5508 10.6094C12.3502 10.3177 12.25 9.98958 12.25 9.625H9.07812C8.98697 9.625 8.9095 9.59309 8.8457 9.52929C8.78189 9.46549 8.74999 9.38802 8.74999 9.29687V8.64062C8.74999 8.54948 8.78189 8.472 8.8457 8.4082C8.9095 8.3444 8.98697 8.3125 9.07812 8.3125H12.8515C13.1797 8.02083 13.5625 7.875 14 7.875C14.4375 7.875 14.8203 8.02083 15.1484 8.3125H18.9218C19.013 8.3125 19.0905 8.3444 19.1543 8.4082C19.2181 8.472 19.25 8.54948 19.25 8.64062V9.29687C19.25 9.38802 19.2181 9.46549 19.1543 9.52929C19.0905 9.59309 19.013 9.625 18.9218 9.625H15.75C15.75 9.98958 15.6497 10.3177 15.4492 10.6094C15.2487 10.901 14.9844 11.1107 14.6562 11.2383ZM14 9.1875C13.8724 9.1875 13.7676 9.22851 13.6855 9.31054C13.6035 9.39257 13.5625 9.49739 13.5625 9.625C13.5625 9.7526 13.6035 9.85742 13.6855 9.93945C13.7676 10.0215 13.8724 10.0625 14 10.0625C14.1276 10.0625 14.2324 10.0215 14.3144 9.93945C14.3965 9.85742 14.4375 9.7526 14.4375 9.625C14.4375 9.49739 14.3965 9.39257 14.3144 9.31054C14.2324 9.22851 14.1276 9.1875 14 9.1875ZM12.25 15.3125C12.25 15.7135 12.1133 16.0781 11.8398 16.4062C11.5664 16.7344 11.1927 16.9987 10.7187 17.1992C10.2448 17.3997 9.73437 17.5 9.18749 17.5C8.64062 17.5 8.1302 17.3997 7.65625 17.1992C7.18229 16.9987 6.80859 16.7344 6.53516 16.4062C6.26172 16.0781 6.125 15.7135 6.125 15.3125C6.125 15.1484 6.16146 14.9752 6.23437 14.793C6.30729 14.6107 6.57161 14.0729 7.02734 13.1797L8.01171 11.2383C8.17578 10.9101 8.41276 10.6914 8.72265 10.582C9.03255 10.4727 9.34244 10.4727 9.65234 10.582C9.96223 10.6914 10.1992 10.9101 10.3633 11.2383L11.3476 13.1797C11.8034 14.0729 12.0677 14.6107 12.1406 14.793C12.2135 14.9752 12.25 15.1484 12.25 15.3125ZM9.18749 11.8125L7.4375 15.3125H10.9375L9.18749 11.8125ZM21.875 15.3125C21.875 15.7135 21.7382 16.0781 21.4648 16.4062C21.1914 16.7344 20.8177 16.9987 20.3437 17.1992C19.8698 17.3997 19.3593 17.5 18.8125 17.5C18.2656 17.5 17.7552 17.3997 17.2812 17.1992C16.8073 16.9987 16.4336 16.7344 16.1601 16.4062C15.8867 16.0781 15.75 15.7135 15.75 15.3125C15.75 15.1484 15.7864 14.9752 15.8594 14.793C15.9323 14.6107 16.1966 14.0729 16.6523 13.1797L17.6367 11.2383C17.8008 10.9101 18.0377 10.6914 18.3476 10.582C18.6575 10.4727 18.9674 10.4727 19.2773 10.582C19.5872 10.6914 19.8242 10.9101 19.9882 11.2383L20.9726 13.1797C21.4283 14.0729 21.6927 14.6107 21.7656 14.793C21.8385 14.9752 21.875 15.1484 21.875 15.3125ZM18.8125 11.8125L17.0625 15.3125H20.5625L18.8125 11.8125Z" fill="#6CC20D"/>
</svg>
