<svg width="18" height="18" viewBox="0 0 18 18" fill="none" xmlns="http://www.w3.org/2000/svg">
<path d="M9 17C13.4183 17 17 13.4183 17 9C17 4.58172 13.4183 1 9 1C4.58172 1 1 4.58172 1 9C1 13.4183 4.58172 17 9 17Z" stroke="#4F1A80" stroke-width="2" stroke-miterlimit="10"/>
<path d="M15.9771 6.4059C15.9918 6.49343 15.9438 6.57878 15.8627 6.6149L15.0771 6.96495C15.0275 6.98704 14.9711 6.98803 14.9208 6.9677L12.2968 5.90753C12.2261 5.87898 12.1778 5.81275 12.1722 5.73675L12.0041 3.44807C12.0011 3.40743 12.0106 3.36685 12.0313 3.33175L12.7165 2.17088C12.7725 2.07609 12.8942 2.04376 12.987 2.10306C14.1995 2.87846 15.662 4.52634 15.9771 6.4059Z" fill="#4F1A80"/>
<path d="M6.5604 2.07445C6.49932 2.02915 6.4189 2.02198 6.35207 2.05826C5.94635 2.27854 4.47093 3.11916 3.0712 4.41416C3.02622 4.45577 3.00308 4.51612 3.00836 4.57718L3.02694 4.79219C3.03675 4.90571 3.13927 4.9881 3.25224 4.97327L5.68532 4.65378C5.74888 4.64543 5.8046 4.60712 5.83513 4.55074L6.91736 2.55304C6.96477 2.46551 6.9406 2.35643 6.86065 2.29713L6.5604 2.07445Z" fill="#4F1A80"/>
<path d="M15.8732 12.8013C15.9372 12.6855 15.8732 12.5406 15.7445 12.51L13.6768 12.0177C13.6277 12.006 13.5761 12.0133 13.5322 12.038L11.0077 13.4618C10.9705 13.4827 10.941 13.515 10.9235 13.5539L10.0968 15.39C10.0463 15.5022 10.1079 15.6325 10.228 15.6595C10.8616 15.802 11.8911 15.9547 12.1434 15.9913C12.1812 15.9968 12.2191 15.991 12.2538 15.975C13.4699 15.4153 14.4922 14.813 15.1341 14.1271C15.1451 14.1153 15.1544 14.1023 15.1622 14.0882L15.8732 12.8013Z" fill="#4F1A80"/>
<path d="M2.02104 11.2447C2.01043 11.1184 2.11845 11.0142 2.24426 11.0294L3.9237 11.2317C3.97311 11.2377 4.01852 11.2618 4.05107 11.2995L5.9265 13.4686C5.97241 13.5217 5.98712 13.595 5.96527 13.6617L5.57193 14.8623C5.54501 14.9444 5.46833 15 5.38187 15H4.54647C4.49844 15 4.45295 14.9835 4.41731 14.9513C4.10932 14.6731 2.58669 13.2399 2.0603 11.6484C2.05548 11.6338 2.05247 11.6188 2.05118 11.6035L2.02104 11.2447Z" fill="#4F1A80"/>
<path d="M10.6872 6.40379C10.6803 6.33051 10.6336 6.26697 10.5658 6.23837L7.75448 5.05259C7.67917 5.02082 7.5921 5.03809 7.5346 5.09618L5.06994 7.58657C5.02534 7.63164 5.00475 7.69519 5.01445 7.75786L5.48933 10.8245C5.50011 10.8941 5.54672 10.9529 5.61203 10.9793L8.0286 11.956C8.09582 11.9832 8.17249 11.9718 8.22897 11.9263L10.9152 9.7637C10.9675 9.72156 10.9952 9.65595 10.9889 9.58905L10.6872 6.40379Z" fill="#4F1A80"/>
</svg>
